<svg width="22" height="22" viewBox="0 0 22 22" fill="none" xmlns="http://www.w3.org/2000/svg">
<path fill-rule="evenodd" clip-rule="evenodd" d="M0 11C0 4.92486 4.92486 0 11 0C17.0752 0 22 4.92486 22 11C22 17.0752 17.0752 22 11 22C4.92486 22 0 17.0752 0 11ZM13.9312 9.30769C13.3753 8.34502 10.8025 6.83678 9.1168 5.92236C8.4531 5.56228 8.12124 5.38225 7.84776 5.54013C7.57428 5.69802 7.56427 6.07545 7.54424 6.83029C7.49336 8.74731 7.51306 11.7296 8.06886 12.6923C8.62466 13.655 11.1977 15.1632 12.8832 16.0776C13.5469 16.4377 13.8788 16.6178 14.1523 16.4598C14.4258 16.302 14.4357 15.9245 14.4558 15.1697C14.5067 13.2527 14.4869 10.2704 13.9312 9.30769Z" fill="#8567FE"/>
</svg>
