<svg width="22" height="22" viewBox="0 0 22 22" fill="none" xmlns="http://www.w3.org/2000/svg">
<path fill-rule="evenodd" clip-rule="evenodd" d="M11 22C4.92487 22 0 17.0751 0 11C0 4.92487 4.92487 0 11 0C17.0751 0 22 4.92487 22 11C22 17.0751 17.0751 22 11 22ZM11 20C15.9706 20 20 15.9706 20 11C20 6.02944 15.9706 2 11 2C6.02944 2 2 6.02944 2 11C2 15.9706 6.02944 20 11 20ZM16.5811 5.41886L13.7906 13.7906L5.41886 16.5811L8.20943 8.20943L16.5811 5.41886ZM8.58114 13.4189L12.2094 12.2094L13.4189 8.58114L9.79057 9.79057L8.58114 13.4189Z" fill="#4C4C4C"/>
</svg>
