<svg width="28" height="7" viewBox="0 0 28 7" fill="none" xmlns="http://www.w3.org/2000/svg">
<path d="M5.25423 3.34175V0H6.64097V3.34175H5.25423ZM0 1.63407C0 0.633018 0.701077 0.0294427 1.8644 0.0294427H2.71956C3.88289 0.0294427 4.58397 0.633018 4.58397 1.63407C4.58397 2.63512 3.88289 3.2387 2.71956 3.2387H1.8644C0.701077 3.2387 0 2.63512 0 1.63407ZM0.639444 4.6225V3.61409H6.64097V5.7266H2.10323V5.99159H6.72572V7H0.716486V4.87277H5.25423V4.6225H0.639444ZM1.40215 1.63407C1.40215 1.93586 1.64098 2.11987 2.03389 2.11987H2.55007C2.94298 2.11987 3.18181 1.93586 3.18181 1.63407C3.18181 1.33228 2.94298 1.14827 2.55007 1.14827H2.03389C1.64098 1.14827 1.40215 1.33228 1.40215 1.63407ZM12.1145 3.57729C11.8988 3.76866 11.5829 3.88644 11.059 3.88644H7.27631V0.0883285H11.2517V1.20715H8.66306V2.76761H11.0976C11.5367 2.76761 11.7909 2.71609 12.1145 2.53943V0H13.5013V1.29548H14.2871V2.42902H13.5013V4.93165H12.1145V3.57729ZM7.64611 6.88223V4.51945H9.03286V5.74869H13.5783V6.88223H7.64611ZM14.1212 6.66141V5.49842H16.4094V3.8938H17.7961V5.49842H21.0858V6.66141H14.1212ZM14.5912 2.2082L19.152 2.09779V1.32492H14.6066V0.161935H20.5388V3.09148C20.5388 3.68034 20.3462 4.5489 20.2075 4.92429L18.8824 4.67403C19.0057 4.25447 19.1212 3.60673 19.1443 3.16509L14.7453 3.36383L14.5912 2.2082ZM26.5285 3.20925C26.3051 3.43743 25.9815 3.59201 25.396 3.59201H21.5362V0.0883285H25.6194V1.20715H22.923V2.47319H25.4345C25.9122 2.47319 26.1741 2.40694 26.5285 2.20084V0H27.9153V3.75394H26.5285V3.20925ZM21.7982 5.5205C21.7982 4.60042 22.4299 4.04837 23.4777 4.04837H26.3975C27.3991 4.04837 28 4.60042 28 5.5205C28 6.44059 27.3991 7 26.3975 7H23.4777C22.4299 7 21.7982 6.44059 21.7982 5.5205ZM23.2003 5.50578C23.2003 5.71188 23.3159 5.83701 23.5008 5.83701H26.2974C26.4823 5.83701 26.5978 5.71188 26.5978 5.50578C26.5978 5.30705 26.4823 5.18191 26.2974 5.18191H23.5008C23.3159 5.18191 23.2003 5.30705 23.2003 5.50578Z" fill="#8567FE"/>
</svg>
