<svg width="22" height="22" viewBox="0 0 22 22" fill="none" xmlns="http://www.w3.org/2000/svg">
<g clip-path="url(#clip0_27_31)">
<path d="M19.7996 19.763V7.60662L10.9998 2.23822L2.19995 7.60662V19.763H6.59987V16.6871C6.59987 14.2154 8.56995 12.213 10.9998 12.213C13.4309 12.213 15.3998 14.2154 15.3998 16.6871V19.763H19.7996ZM13.1998 22V16.6871C13.1998 15.4519 12.2158 14.4501 10.9998 14.4501C9.78509 14.4501 8.79983 15.4515 8.79983 16.6871V22H2.19995C0.984825 22 0 20.9986 0 19.763V7.60662C0 6.82017 0.406047 6.0927 1.06904 5.68855L9.86887 0.318841C10.5649 -0.10628 11.4359 -0.10628 12.1324 0.318841L20.9323 5.68855C21.5952 6.0927 22 6.82017 22 7.60662V19.763C22 20.9981 21.016 22 19.8 22H13.1998Z" fill="#666666"/>
</g>
<defs>
<clipPath id="clip0_27_31">
<rect width="22" height="22" fill="white"/>
</clipPath>
</defs>
</svg>
