<svg width="330" height="60" viewBox="0 0 330 60" fill="none" xmlns="http://www.w3.org/2000/svg">
<g clip-path="url(#clip0_83_4)">
<g clip-path="url(#clip1_83_4)">
<mask id="mask0_83_4" style="mask-type:luminance" maskUnits="userSpaceOnUse" x="0" y="0" width="60" height="60">
<path d="M60 0H0V60H60V0Z" fill="white"/>
</mask>
<g mask="url(#mask0_83_4)">
<path d="M46.875 0H13.125C5.87626 0 0 5.87626 0 13.125V46.875C0 54.1237 5.87626 60 13.125 60H46.875C54.1237 60 60 54.1237 60 46.875V13.125C60 5.87626 54.1237 0 46.875 0Z" fill="#8567FE"/>
<path d="M25.515 19.5787V10.215H29.2275V19.5787H25.515ZM11.4488 14.7937C11.4488 11.9887 13.3256 10.2975 16.44 10.2975H18.7294C21.8438 10.2975 23.7206 11.9887 23.7206 14.7937C23.7206 17.5987 21.8438 19.29 18.7294 19.29H16.44C13.3256 19.29 11.4488 17.5987 11.4488 14.7937ZM13.1606 23.1675V20.3419H29.2275V26.2612H17.0794V27.0037H29.4544V29.8294H13.3669V23.8687H25.515V23.1675H13.1606ZM15.2025 14.7937C15.2025 15.6394 15.8419 16.155 16.8938 16.155H18.2756C19.3275 16.155 19.9669 15.6394 19.9669 14.7937C19.9669 13.9481 19.3275 13.4325 18.2756 13.4325H16.8938C15.8419 13.4325 15.2025 13.9481 15.2025 14.7937ZM43.6748 20.2387C43.0973 20.775 42.2516 21.105 40.8491 21.105H30.7223V10.4625H41.3648V13.5975H34.4348V17.97H40.9523C42.1279 17.97 42.8085 17.8256 43.6748 17.3306V10.215H47.3873V13.845H49.491V17.0212H47.3873V24.0337H43.6748V20.2387ZM31.7123 29.4994V22.8787H35.4248V26.3231H47.5935V29.4994H31.7123Z" fill="white"/>
<path d="M11.2838 49.6931V46.4344H17.4094V41.9381H21.1219V46.4344H29.9288V49.6931H11.2838ZM12.5419 37.215L24.7519 36.9056V34.74H12.5831V31.4812H28.4644V39.69C28.4644 41.34 27.9488 43.7737 27.5775 44.8256L24.03 44.1244C24.36 42.9487 24.6694 41.1337 24.7313 39.8962L12.9544 40.4531L12.5419 37.215ZM44.2935 40.02C43.6954 40.6594 42.8291 41.0925 41.2616 41.0925H30.9285V31.275H41.8598V34.41H34.641V37.9575H41.3648C42.6435 37.9575 43.3448 37.7719 44.2935 37.1944V31.0275H48.006V41.5462H44.2935V40.02ZM31.6298 46.4962C31.6298 43.9181 33.321 42.3712 36.126 42.3712H43.9429C46.6241 42.3712 48.2329 43.9181 48.2329 46.4962C48.2329 49.0744 46.6241 50.6419 43.9429 50.6419H36.126C33.321 50.6419 31.6298 49.0744 31.6298 46.4962ZM35.3835 46.455C35.3835 47.0325 35.6929 47.3831 36.1879 47.3831H43.6748C44.1698 47.3831 44.4791 47.0325 44.4791 46.455C44.4791 45.8981 44.1698 45.5475 43.6748 45.5475H36.1879C35.6929 45.5475 35.3835 45.8981 35.3835 46.455Z" fill="white"/>
</g>
</g>
<path d="M199.561 40.3232C202.13 40.314 204.06 41.9282 204.069 44.1826C204.06 46.4185 202.13 48.0142 199.561 48.0234C196.954 48.0142 195.015 46.4185 195.015 44.1826C195.015 41.9282 196.954 40.314 199.561 40.3232ZM197.315 44.1826C197.297 45.3887 198.252 46.103 199.561 46.1123C200.841 46.103 201.778 45.3887 201.787 44.1826C201.778 42.9673 200.841 42.2529 199.561 42.2529C198.262 42.2529 197.297 42.9673 197.315 44.1826ZM197.557 50.8066V48.9883H208.894V53.5713H199.913V54.666H209.357V56.5215H197.594V51.8457H206.537V50.8066H197.557ZM206.519 48.2832V39.8223H208.894V48.2832H206.519ZM224.572 39.8223V44.4238H226.854V46.3721H224.572V52.0312H222.197V39.8223H224.572ZM211.825 49.248V41.1768H219.451V43.0693H214.2V47.3369C217.262 47.3184 218.941 47.2163 220.824 46.8174L221.065 48.71C218.941 49.146 216.993 49.248 213.254 49.248H211.825ZM213.625 56.4102V50.7324H215.981V54.5176H225.185V56.4102H213.625ZM241.457 41.2324V42.7354C241.448 44.7671 241.485 47.1606 240.696 50.8066L238.377 50.5654C238.655 49.2852 238.832 48.144 238.943 47.1143L229.137 47.6709L228.803 45.6484L239.082 45.3145C239.128 44.5166 239.128 43.793 239.138 43.125H229.359V41.2324H241.457ZM227.597 54.7588V52.8291H233.107V48.7471H235.464V52.8291H242.997V54.7588H227.597ZM258.156 39.8223V49.916H255.781V39.8223H258.156ZM244.982 48.877V41.084H253.054V42.9766H247.32V46.9844C250.521 46.9751 252.386 46.8452 254.445 46.4463L254.649 48.3389C252.367 48.8027 250.298 48.8862 246.448 48.877H244.982ZM246.597 53.4043C246.587 51.3076 248.795 50.0737 252.404 50.083C255.958 50.0737 258.193 51.3076 258.212 53.4043C258.193 55.4917 255.958 56.7256 252.404 56.7256C248.795 56.7256 246.587 55.4917 246.597 53.4043ZM248.972 53.4043C248.972 54.3877 250.15 54.8887 252.404 54.8887C254.64 54.8887 255.865 54.3877 255.874 53.4043C255.865 52.3931 254.64 51.9385 252.404 51.9385C250.15 51.9385 248.972 52.3931 248.972 53.4043ZM279.012 39.8223V56.707H276.655V39.8223H279.012ZM264.892 51.9385C266.181 51.9292 267.656 51.9292 269.196 51.8921V50.4634C267.35 50.1294 266.144 48.979 266.153 47.3926C266.144 45.5093 267.86 44.2197 270.347 44.2197C272.852 44.2197 274.596 45.5093 274.596 47.3926C274.596 48.9697 273.39 50.1201 271.534 50.4634V51.8086C272.954 51.7437 274.373 51.6323 275.728 51.4561L275.895 53.2002C272.193 53.8403 268.213 53.8774 265.207 53.8682L264.892 51.9385ZM265.226 43.5518V41.6963H269.196V39.8965H271.553V41.6963H275.486V43.5518H265.226ZM268.398 47.3926C268.389 48.2832 269.196 48.7656 270.347 48.7656C271.534 48.7656 272.332 48.2832 272.332 47.3926C272.332 46.5205 271.534 46.0288 270.347 46.0195C269.196 46.0288 268.389 46.5205 268.398 47.3926ZM295.544 39.8408V52.5879H293.169V51.252H289.94V49.6377H293.169V39.8408H295.544ZM281.183 47.3184C284.272 47.2998 288.447 47.2534 292.019 46.8174L292.148 48.5059C290.812 48.7285 289.43 48.8862 288.066 48.9883V52.1982H285.691V54.5176H295.915V56.4102H283.335V51.3633H285.691V49.1274C284.179 49.1831 282.741 49.1924 281.461 49.1924L281.183 47.3184ZM282.426 43.4404C282.426 41.6406 284.161 40.4067 286.675 40.416C289.124 40.4067 290.877 41.6406 290.887 43.4404C290.877 45.2495 289.124 46.4185 286.675 46.4092C284.161 46.4185 282.426 45.2495 282.426 43.4404ZM284.671 43.4404C284.662 44.2568 285.469 44.7114 286.675 44.7021C287.807 44.7114 288.623 44.2568 288.642 43.4404C288.623 42.6055 287.807 42.1416 286.675 42.1416C285.469 42.1416 284.662 42.6055 284.671 43.4404ZM310.981 39.8223V46.2979H313.375V48.2461H310.981V56.6699H308.606V39.8223H310.981ZM297.474 51.9385C301.472 49.9346 303.625 47.2441 304.07 43.4775H298.438V41.5479H306.473C306.454 46.5947 304.487 50.9644 298.81 53.7568L297.474 51.9385ZM328.219 39.8223V48.8955H325.844V39.8223H328.219ZM314.34 44.5352C314.34 42.1602 316.325 40.5088 318.96 40.5273C321.585 40.5088 323.571 42.1602 323.58 44.5352C323.571 46.8359 321.585 48.4873 318.96 48.4873C316.325 48.4873 314.34 46.8359 314.34 44.5352ZM316.659 44.5352C316.641 45.7876 317.605 46.5391 318.96 46.5391C320.277 46.5391 321.233 45.7876 321.242 44.5352C321.233 43.2642 320.277 42.4849 318.96 42.4941C317.605 42.4849 316.641 43.2642 316.659 44.5352ZM316.919 56.5215V49.6377H319.257V51.2148H325.862V49.6377H328.219V56.5215H316.919ZM319.257 54.6104H325.862V53.0518H319.257V54.6104Z" fill="#8567FE"/>
</g>
<defs>
<clipPath id="clip0_83_4">
<rect width="330" height="60" fill="white"/>
</clipPath>
<clipPath id="clip1_83_4">
<rect width="60" height="60" fill="white"/>
</clipPath>
</defs>
</svg>
