<svg width="330" height="60" viewBox="0 0 330 60" fill="none" xmlns="http://www.w3.org/2000/svg">
<g clip-path="url(#clip0_30_41)">
<g clip-path="url(#clip1_30_41)">
<mask id="mask0_30_41" style="mask-type:luminance" maskUnits="userSpaceOnUse" x="0" y="0" width="60" height="60">
<path d="M60 0H0V60H60V0Z" fill="white"/>
</mask>
<g mask="url(#mask0_30_41)">
<path d="M46.875 0H13.125C5.87626 0 0 5.87626 0 13.125V46.875C0 54.1237 5.87626 60 13.125 60H46.875C54.1237 60 60 54.1237 60 46.875V13.125C60 5.87626 54.1237 0 46.875 0Z" fill="#8567FE"/>
<path d="M25.515 19.5787V10.215H29.2275V19.5787H25.515ZM11.4488 14.7937C11.4488 11.9887 13.3256 10.2975 16.44 10.2975H18.7294C21.8438 10.2975 23.7206 11.9887 23.7206 14.7937C23.7206 17.5987 21.8438 19.29 18.7294 19.29H16.44C13.3256 19.29 11.4488 17.5987 11.4488 14.7937ZM13.1606 23.1675V20.3419H29.2275V26.2612H17.0794V27.0037H29.4544V29.8294H13.3669V23.8687H25.515V23.1675H13.1606ZM15.2025 14.7937C15.2025 15.6394 15.8419 16.155 16.8938 16.155H18.2756C19.3275 16.155 19.9669 15.6394 19.9669 14.7937C19.9669 13.9481 19.3275 13.4325 18.2756 13.4325H16.8938C15.8419 13.4325 15.2025 13.9481 15.2025 14.7937ZM43.6748 20.2387C43.0973 20.775 42.2516 21.105 40.8491 21.105H30.7223V10.4625H41.3648V13.5975H34.4348V17.97H40.9523C42.1279 17.97 42.8085 17.8256 43.6748 17.3306V10.215H47.3873V13.845H49.491V17.0212H47.3873V24.0337H43.6748V20.2387ZM31.7123 29.4994V22.8787H35.4248V26.3231H47.5935V29.4994H31.7123Z" fill="white"/>
<path d="M11.2838 49.6931V46.4344H17.4094V41.9381H21.1219V46.4344H29.9288V49.6931H11.2838ZM12.5419 37.215L24.7519 36.9056V34.74H12.5831V31.4812H28.4644V39.69C28.4644 41.34 27.9488 43.7737 27.5775 44.8256L24.03 44.1244C24.36 42.9487 24.6694 41.1337 24.7313 39.8962L12.9544 40.4531L12.5419 37.215ZM44.2935 40.02C43.6954 40.6594 42.8291 41.0925 41.2616 41.0925H30.9285V31.275H41.8598V34.41H34.641V37.9575H41.3648C42.6435 37.9575 43.3448 37.7719 44.2935 37.1944V31.0275H48.006V41.5462H44.2935V40.02ZM31.6298 46.4962C31.6298 43.9181 33.321 42.3712 36.126 42.3712H43.9429C46.6241 42.3712 48.2329 43.9181 48.2329 46.4962C48.2329 49.0744 46.6241 50.6419 43.9429 50.6419H36.126C33.321 50.6419 31.6298 49.0744 31.6298 46.4962ZM35.3835 46.455C35.3835 47.0325 35.6929 47.3831 36.1879 47.3831H43.6748C44.1698 47.3831 44.4791 47.0325 44.4791 46.455C44.4791 45.8981 44.1698 45.5475 43.6748 45.5475H36.1879C35.6929 45.5475 35.3835 45.8981 35.3835 46.455Z" fill="white"/>
</g>
</g>
<path d="M122.11 41.2139V49.3223H114.002V41.2139H122.11ZM115.95 56.4102V50.9365H118.307V54.5176H127.51V56.4102H115.95ZM116.34 47.4668H119.772V43.1064H116.34V47.4668ZM124.522 52.1426V39.8223H126.897V44.6836H129.18V46.6318H126.897V52.1426H124.522ZM145.359 46.4092V48.2646H129.922V46.4092H145.359ZM131.703 51.0479V49.2666H143.448V53.6826H134.041V54.7217H143.894V56.5586H131.722V51.9941H141.11V51.0479H131.703ZM131.852 45.4814V40.1562H143.393V42.0488H134.208V43.626H143.522V45.4814H131.852ZM155.063 41.1953V42.4756H158.218V39.8408H160.574V52.124H158.218V47.9863H155.063V49.415H147.048V41.1953H155.063ZM149.33 56.4102V50.9551H151.724V54.5176H160.927V56.4102H149.33ZM149.404 47.5781H152.744V43.0693H149.404V47.5781ZM155.063 46.1123H158.218V44.3867H155.063V46.1123ZM169.146 43.6445C169.156 46.8174 170.436 49.9067 173.247 51.1221L171.8 53.0146C169.926 52.1055 168.664 50.417 167.959 48.3296C167.235 50.5469 165.937 52.3652 164.007 53.3115L162.522 51.3818C165.417 50.0737 166.734 46.8174 166.753 43.6445V41.1211H169.146V43.6445ZM171.354 47.04V45.1289H174.676V39.8223H177.014V56.7441H174.676V47.04H171.354ZM186.272 41.3252V45.1289H188.573V41.3252H190.763V52.6992H184.046V41.3252H186.272ZM186.272 50.8066H188.573V46.9844H186.272V50.8066ZM192.173 55.9277V40.0635H194.418V46.2607H195.939V39.8223H198.203V56.707H195.939V48.1904H194.418V55.9277H192.173ZM215.422 49.2666V51.1963H208.816V56.7256H206.479V51.1963H199.966V49.2666H215.422ZM201.524 44.2197C201.515 41.8726 204.02 40.3882 207.647 40.3789C211.275 40.3882 213.808 41.8726 213.808 44.2197C213.808 46.5112 211.275 47.9863 207.647 47.9863C204.02 47.9863 201.515 46.5112 201.524 44.2197ZM203.955 44.2197C203.946 45.4258 205.384 46.103 207.647 46.1123C209.93 46.103 211.358 45.4258 211.358 44.2197C211.358 42.9673 209.93 42.2808 207.647 42.2715C205.384 42.2808 203.946 42.9673 203.955 44.2197ZM230.117 44.4238V46.2793H218.316V40.416H220.673V44.4238H230.117ZM216.387 49.9531V48.0977H231.843V49.9531H216.387ZM218.168 56.3359V51.3262H220.543V54.4434H230.229V56.3359H218.168ZM243.551 41.5664V55H240.749V44.2197H240.675L237.595 46.1494V43.6816L240.916 41.5664H243.551ZM248.301 55.167C247.429 55.167 246.724 54.4712 246.742 53.6084C246.724 52.7549 247.429 52.0591 248.301 52.0684C249.126 52.0591 249.841 52.7549 249.841 53.6084C249.841 54.4712 249.126 55.167 248.301 55.167ZM246.742 46.5391C246.724 45.6855 247.429 44.9897 248.301 44.999C249.126 44.9897 249.841 45.6855 249.841 46.5391C249.841 47.4019 249.126 48.0977 248.301 48.0977C247.429 48.0977 246.724 47.4019 246.742 46.5391ZM257.819 41.5664V55H255.018V44.2197H254.943L251.863 46.1494V43.6816L255.185 41.5664H257.819ZM278.267 39.8223V46.6875H280.475V48.6543H278.267V56.707H275.873V39.8223H278.267ZM264.555 51.9385C265.789 51.9385 267.227 51.9385 268.729 51.9014V50.4541C266.939 50.1016 265.77 48.9604 265.779 47.3926C265.77 45.5093 267.477 44.2197 269.936 44.2197C272.348 44.2197 274.073 45.5093 274.092 47.3926C274.073 48.9604 272.886 50.1108 271.104 50.4541V51.8179C272.44 51.7437 273.786 51.6323 275.038 51.4561L275.187 53.1816C271.596 53.8496 267.718 53.8774 264.87 53.8682L264.555 51.9385ZM264.889 43.5518V41.6963H268.729V39.915H271.104V41.6963H274.908V43.5518H264.889ZM268.024 47.3926C268.015 48.2832 268.776 48.7656 269.936 48.7656C271.058 48.7656 271.81 48.2832 271.81 47.3926C271.81 46.5205 271.058 46.0288 269.936 46.0195C268.776 46.0288 268.015 46.5205 268.024 47.3926ZM287.34 42.4756C287.331 44.5259 288.527 46.4927 291.199 47.3184L289.938 49.1553C288.147 48.5615 286.895 47.4111 286.171 45.936C285.438 47.6338 284.13 48.9697 282.2 49.6191L280.92 47.7637C283.74 46.8267 284.946 44.5815 284.965 42.2529V40.7129H287.34V42.4756ZM283.258 53.4414C283.249 51.3911 285.484 50.1758 289.047 50.1758C292.544 50.1758 294.734 51.3911 294.743 53.4414C294.734 55.5103 292.544 56.7163 289.047 56.707C285.484 56.7163 283.249 55.5103 283.258 53.4414ZM285.633 53.4414C285.614 54.397 286.83 54.8516 289.047 54.8516C291.236 54.8516 292.405 54.397 292.405 53.4414C292.405 52.5229 291.236 52.0312 289.047 52.0312C286.83 52.0312 285.614 52.5229 285.633 53.4414ZM292.201 49.8418V39.8223H294.576V43.7744H296.858V45.7412H294.576V49.8418H292.201ZM311.461 41.2324V42.7354C311.452 44.7671 311.489 47.1606 310.7 50.8066L308.381 50.5654C308.659 49.2852 308.835 48.144 308.947 47.1143L299.141 47.6709L298.807 45.6484L309.086 45.3145C309.132 44.5166 309.132 43.793 309.142 43.125H299.363V41.2324H311.461ZM297.601 54.7588V52.8291H303.111V48.7471H305.468V52.8291H313.001V54.7588H297.601ZM328.16 39.8223V49.916H325.785V39.8223H328.16ZM314.986 48.877V41.084H323.058V42.9766H317.324V46.9844C320.525 46.9751 322.39 46.8452 324.449 46.4463L324.653 48.3389C322.371 48.8027 320.302 48.8862 316.452 48.877H314.986ZM316.601 53.4043C316.591 51.3076 318.799 50.0737 322.408 50.083C325.961 50.0737 328.197 51.3076 328.216 53.4043C328.197 55.4917 325.961 56.7256 322.408 56.7256C318.799 56.7256 316.591 55.4917 316.601 53.4043ZM318.976 53.4043C318.976 54.3877 320.154 54.8887 322.408 54.8887C324.644 54.8887 325.869 54.3877 325.878 53.4043C325.869 52.3931 324.644 51.9385 322.408 51.9385C320.154 51.9385 318.976 52.3931 318.976 53.4043Z" fill="#8567FE"/>
</g>
<defs>
<clipPath id="clip0_30_41">
<rect width="330" height="60" fill="white"/>
</clipPath>
<clipPath id="clip1_30_41">
<rect width="60" height="60" fill="white"/>
</clipPath>
</defs>
</svg>
