<svg width="70" height="70" viewBox="0 0 70 70" fill="none" xmlns="http://www.w3.org/2000/svg">
<mask id="mask0_1147_254" style="mask-type:luminance" maskUnits="userSpaceOnUse" x="0" y="0" width="70" height="59">
<path d="M70 0H0V58.1H70V0Z" fill="white"/>
</mask>
<g mask="url(#mask0_1147_254)">
<path d="M35.0002 67.6666C53.0415 67.6666 67.6668 53.0412 67.6668 34.9999C67.6668 16.9586 53.0415 2.33325 35.0002 2.33325C16.9589 2.33325 2.3335 16.9586 2.3335 34.9999C2.3335 53.0412 16.9589 67.6666 35.0002 67.6666Z" fill="#8567FE"/>
</g>
<path d="M35.0002 40.2501C42.41 40.2501 48.4168 34.2432 48.4168 26.8334C48.4168 19.4236 42.41 13.4167 35.0002 13.4167C27.5903 13.4167 21.5835 19.4236 21.5835 26.8334C21.5835 34.2432 27.5903 40.2501 35.0002 40.2501Z" fill="#E7E1FF"/>
<mask id="mask1_1147_254" style="mask-type:luminance" maskUnits="userSpaceOnUse" x="2" y="2" width="66" height="66">
<path d="M35.0002 67.6666C53.0415 67.6666 67.6668 53.0412 67.6668 34.9999C67.6668 16.9586 53.0415 2.33325 35.0002 2.33325C16.9589 2.33325 2.3335 16.9586 2.3335 34.9999C2.3335 53.0412 16.9589 67.6666 35.0002 67.6666Z" fill="white"/>
</mask>
<g mask="url(#mask1_1147_254)">
<path d="M35.0002 88.0833C48.209 88.0833 58.9168 77.3755 58.9168 64.1667C58.9168 50.9579 48.209 40.25 35.0002 40.25C21.7914 40.25 11.0835 50.9579 11.0835 64.1667C11.0835 77.3755 21.7914 88.0833 35.0002 88.0833Z" fill="#E7E1FF"/>
</g>
</svg>
