<svg width="22" height="22" viewBox="0 0 22 22" fill="none" xmlns="http://www.w3.org/2000/svg">
<path fill-rule="evenodd" clip-rule="evenodd" d="M18.2188 19.8H3.78199C3.00496 19.8 2.43117 19.0333 2.72424 18.3282C4.08404 15.0678 7.27862 13.2 10.9998 13.2C14.7222 13.2 17.9168 15.0678 19.2766 18.3282C19.5696 19.0333 18.9958 19.8 18.2188 19.8ZM6.50833 6.59999C6.50833 4.17339 8.52389 2.19998 10.9998 2.19998C13.4769 2.19998 15.4913 4.17339 15.4913 6.59999C15.4913 9.02659 13.4769 11 10.9998 11C8.52389 11 6.50833 9.02659 6.50833 6.59999ZM21.9512 19.3996C21.1349 15.7047 18.5815 12.9778 15.2207 11.7403C17.0016 10.3356 18.0403 8.06403 17.6585 5.57693C17.2161 2.69163 14.766 0.382775 11.8083 0.0461746C7.72553 -0.419126 4.26258 2.69389 4.26258 6.59999C4.26258 8.67899 5.24622 10.5314 6.78007 11.7403C3.41818 12.9778 0.86588 15.7047 0.0484264 19.3996C-0.248013 20.7427 0.856898 22 2.25937 22H19.7403C21.1439 22 22.2488 20.7427 21.9512 19.3996Z" fill="#4C4C4C"/>
</svg>
