<?xml version="1.0" standalone="no"?>
<!DOCTYPE svg PUBLIC "-//W3C//DTD SVG 20010904//EN"
 "http://www.w3.org/TR/2001/REC-SVG-20010904/DTD/svg10.dtd">
<svg version="1.0" xmlns="http://www.w3.org/2000/svg"
 width="260.000000pt" height="260.000000pt" viewBox="0 0 260.000000 260.000000"
 preserveAspectRatio="xMidYMid meet">
<metadata>
Created by potrace 1.14, written by Peter Selinger 2001-2017
</metadata>
<g transform="translate(0.000000,260.000000) scale(0.100000,-0.100000)"
fill="#000000" stroke="none">
<path d="M0 1300 l0 -1300 1300 0 1300 0 0 1300 0 1300 -1300 0 -1300 0 0
-1300z m1270 655 l0 -205 -80 0 -80 0 0 205 0 205 80 0 80 0 0 -205z m780 125
l0 -80 50 0 51 0 -3 -67 -3 -68 -47 -3 -48 -3 0 -150 0 -149 -80 0 -80 0 0 79
0 79 -32 -16 c-28 -15 -69 -17 -278 -17 l-245 0 -3 233 -2 232 230 0 230 0 0
-70 0 -70 -150 0 -150 0 0 -95 0 -95 165 0 c122 0 175 4 200 14 l35 15 0 155
0 156 80 0 80 0 0 -80z m-1122 49 c102 -50 133 -201 61 -293 -43 -55 -92 -70
-224 -71 -106 0 -126 3 -168 23 -64 32 -97 88 -97 165 0 93 30 143 105 178 62
29 262 27 323 -2z m340 -536 l-3 -128 -262 -3 c-225 -2 -263 -4 -263 -17 0
-13 38 -15 270 -15 l270 0 0 -60 0 -60 -350 0 -350 0 0 130 0 130 266 0 c208
0 265 3 262 13 -4 9 -69 13 -271 15 l-267 2 0 60 0 60 350 0 351 0 -3 -127z
m270 -60 l3 -73 259 0 260 0 0 -70 0 -70 -345 0 -345 0 0 145 0 146 83 -3 82
-3 3 -72z m542 -503 l0 -230 -80 0 -80 0 0 30 0 30 -37 -20 c-35 -18 -57 -20
-290 -20 l-253 0 0 215 0 215 235 0 235 0 0 -70 0 -70 -155 0 -155 0 0 -75 0
-75 180 0 c143 0 187 3 210 15 l30 16 0 134 0 135 80 0 80 0 0 -230z m-850
-11 c0 -225 -16 -360 -43 -358 -35 1 -137 25 -138 32 -1 4 4 43 11 88 7 44 10
82 7 85 -3 3 -96 1 -207 -5 -110 -6 -223 -11 -250 -11 l-48 0 -9 63 c-5 34 -8
65 -6 68 1 4 120 10 263 14 l260 7 0 44 0 44 -262 2 -263 3 -3 59 c-2 32 -1
65 2 72 4 12 68 14 346 14 l340 0 0 -221z m-310 -334 l0 -95 190 0 190 0 0
-70 0 -70 -405 0 -405 0 0 70 0 70 130 0 130 0 0 95 0 95 85 0 85 0 0 -95z
m1096 49 c56 -41 69 -69 69 -149 0 -59 -4 -79 -21 -101 -55 -74 -117 -88 -374
-82 -174 3 -188 5 -230 28 -127 70 -114 270 20 323 8 3 126 5 262 4 232 -2
248 -3 274 -23z"/>
<path d="M690 2007 c-17 -9 -26 -22 -28 -44 -4 -43 26 -63 98 -63 68 0 100 19
100 60 0 18 -8 34 -22 44 -27 19 -113 21 -148 3z"/>
<path d="M1546 614 c-19 -19 -20 -36 -4 -52 17 -17 359 -17 376 0 16 16 15 33
-4 52 -23 24 -345 24 -368 0z"/>
</g>
</svg>
